<svg width="178" height="62" viewBox="0 0 178 62" fill="none" xmlns="http://www.w3.org/2000/svg">
<path d="M12.9075 3.08948V31.9002V61.2306H0V3.08948H12.9075ZM48.9194 3.09086H33.4304L19.9464 22.0132L12.9075 31.9002L21.3577 41.7787L37.9909 61.2346H53.4799L28.3965 31.9002L48.9194 3.09086Z" fill="white"/>
<path d="M105.937 39.8073C105.937 27.5184 95.9387 17.5203 83.6489 17.5203C79.6087 17.5203 75.82 18.6062 72.5487 20.4935V3.08948H61.3615V61.2346H72.5488V39.8073C72.5488 33.6868 77.5283 28.7075 83.6489 28.7075C89.7692 28.7075 94.7495 33.6868 94.7495 39.8073L94.7495 61.2346H105.937L105.937 39.8073Z" fill="white"/>
<path d="M115.207 17.6541H126.24V61.3481H115.207V17.6541Z" fill="white"/>
<path d="M120.617 13.4698C124.337 13.4698 127.352 10.4544 127.352 6.73487C127.352 3.01528 124.337 0 120.617 0C116.898 0 113.882 3.01528 113.882 6.73487C113.882 10.4545 116.898 13.4698 120.617 13.4698Z" fill="#FF7125"/>
<path d="M177.03 18.3677L161.651 48.371L155.289 60.781L148.927 48.371L133.548 18.3677H146.272L155.289 35.9607L164.306 18.3677H177.03Z" fill="white"/>
</svg>
