<svg width="178" height="81" viewBox="0 0 178 81" fill="none" xmlns="http://www.w3.org/2000/svg">
<path d="M46.8339 72.4257C46.6788 72.5808 46.6168 72.7668 46.6168 72.9994V79.8993C46.6168 80.1319 46.6788 80.318 46.8339 80.473C46.9889 80.6281 47.175 80.6901 47.4076 80.6901C47.6402 80.6901 47.8262 80.6281 47.9813 80.473C48.1208 80.318 48.1984 80.1319 48.1984 79.8993V72.9994C48.1984 72.7668 48.1208 72.5808 47.9813 72.4257C47.8262 72.2862 47.6402 72.2087 47.4076 72.2087C47.175 72.2087 46.9889 72.2862 46.8339 72.4257Z" fill="white"/>
<path d="M59.1138 73.9608C58.7882 73.3716 58.3386 72.9064 57.7804 72.5963C57.2377 72.3172 56.6485 72.1621 55.9973 72.1466C55.9818 72.1466 55.9507 72.1311 55.9507 72.1311H52.3845C52.1674 72.1311 51.9969 72.2087 51.8573 72.3482C51.7023 72.5033 51.6403 72.6738 51.6403 72.8754C51.6403 72.8909 51.6403 72.9219 51.6403 72.9374C51.6403 72.9684 51.6403 72.9839 51.6403 72.9994V79.9148C51.6403 80.1474 51.7023 80.3335 51.8573 80.4885C52.0124 80.6436 52.1984 80.7056 52.431 80.7056C52.6636 80.7056 52.8497 80.6436 53.0047 80.4885C53.1443 80.3335 53.2218 80.1474 53.2218 79.9148V75.5423C53.2218 75.1702 53.3148 74.8446 53.5164 74.5345C53.718 74.2399 53.9971 74.0073 54.3537 73.8212C54.7103 73.6507 55.1135 73.5576 55.5476 73.5576C56.2919 73.5576 56.8811 73.7747 57.3307 74.2088C57.7804 74.643 58.013 75.2787 58.013 76.1005V79.9148C58.013 80.1474 58.075 80.3335 58.23 80.4885C58.3851 80.6436 58.5712 80.7056 58.8037 80.7056C59.0208 80.7056 59.2069 80.6436 59.3619 80.4885C59.517 80.3335 59.5945 80.1474 59.5945 79.9148V76.1005C59.5945 75.2632 59.4239 74.55 59.1138 73.9608Z" fill="white"/>
<path d="M69.0776 72.5808C69 72.4723 68.8915 72.3792 68.7675 72.3172C68.6589 72.2707 68.5349 72.2397 68.4108 72.2397C68.2713 72.2397 68.1472 72.2862 68.0232 72.3482C67.8992 72.4102 67.8216 72.5033 67.7596 72.6273L65.0927 78.4418L62.3948 72.6273C62.3327 72.5033 62.2397 72.4102 62.1312 72.3482C62.0071 72.2862 61.8986 72.2397 61.7745 72.2397C61.6505 72.2397 61.542 72.2707 61.4489 72.3172C61.1543 72.4723 61.0148 72.6738 61.0148 72.9529C61.0148 73.0615 61.0303 73.1545 61.0768 73.232L64.3639 80.1629C64.457 80.349 64.55 80.4885 64.674 80.5661C64.7826 80.6436 64.9221 80.6746 65.1082 80.6746C65.4183 80.6746 65.6664 80.504 65.8214 80.1629L69.1086 73.232C69.1551 73.139 69.1861 73.0305 69.1861 72.9374C69.1861 72.8134 69.1396 72.6893 69.0776 72.5808Z" fill="white"/>
<path d="M78.3427 76.8138C78.4667 76.6897 78.5442 76.5192 78.5442 76.3176C78.5442 75.5113 78.3892 74.7826 78.0791 74.1468C77.769 73.5266 77.3193 73.0304 76.7456 72.6738C76.1564 72.3327 75.4742 72.1466 74.6834 72.1466C73.8771 72.1466 73.1484 72.3327 72.5126 72.7048C71.8769 73.077 71.3807 73.5886 71.0241 74.2399C70.6675 74.8911 70.4969 75.6354 70.4969 76.4571C70.4969 77.2944 70.683 78.0232 71.0551 78.6744C71.4273 79.3256 71.9544 79.8373 72.6367 80.2094C73.3034 80.5816 74.0632 80.7521 74.916 80.7521C75.3811 80.7521 75.8773 80.6746 76.4045 80.4885C76.9317 80.318 77.3658 80.0854 77.7224 79.8063C77.8775 79.6822 77.9705 79.5272 77.9705 79.3411C77.9705 79.1551 77.8775 78.969 77.6914 78.8139C77.5674 78.7209 77.4123 78.6589 77.2263 78.6589C77.0247 78.6589 76.8541 78.7209 76.7146 78.8295C76.4975 79 76.2184 79.1396 75.8773 79.2481C75.5362 79.3721 75.2261 79.4187 74.916 79.4187C74.1252 79.4187 73.4585 79.2016 72.9158 78.7519C72.3731 78.3178 72.0475 77.7286 71.9389 76.9998H77.831C78.0325 76.9998 78.2031 76.9378 78.3427 76.8138ZM72.8383 74.1003C73.3034 73.6972 73.9236 73.4801 74.6834 73.4801C75.3656 73.4801 75.9083 73.6972 76.3425 74.1003C76.7611 74.519 77.0247 75.0772 77.1177 75.7594H71.9545C72.0785 75.0772 72.3731 74.519 72.8383 74.1003Z" fill="white"/>
<path d="M88.5196 73.9608C88.194 73.3716 87.7443 72.9064 87.1861 72.5963C86.6435 72.3172 86.0543 72.1621 85.403 72.1466C85.3875 72.1466 85.3565 72.1311 85.3565 72.1311H81.7903C81.5732 72.1311 81.4026 72.2087 81.2631 72.3482C81.108 72.5033 81.046 72.6738 81.046 72.8754C81.046 72.8909 81.046 72.9219 81.046 72.9374C81.046 72.9684 81.046 72.9839 81.046 72.9994V79.9148C81.046 80.1474 81.108 80.3335 81.2631 80.4885C81.4181 80.6436 81.6042 80.7056 81.8368 80.7056C82.0694 80.7056 82.2554 80.6436 82.4105 80.4885C82.55 80.3335 82.6276 80.1474 82.6276 79.9148V75.5423C82.6276 75.1702 82.7206 74.8446 82.9222 74.5345C83.1237 74.2399 83.4028 74.0073 83.7595 73.8212C84.1161 73.6507 84.5192 73.5576 84.9534 73.5576C85.6976 73.5576 86.2868 73.7747 86.7365 74.2088C87.1861 74.643 87.4187 75.2787 87.4187 76.1005V79.9148C87.4187 80.1474 87.4807 80.3335 87.6358 80.4885C87.7909 80.6436 87.9769 80.7056 88.2095 80.7056C88.4266 80.7056 88.6126 80.6436 88.7677 80.4885C88.9227 80.3335 89.0003 80.1474 89.0003 79.9148V76.1005C89.0003 75.2632 88.8297 74.55 88.5196 73.9608Z" fill="white"/>
<path d="M92.4562 72.5188V73.8522V77.6821C92.4562 78.2558 92.5647 78.7674 92.8128 79.2171C93.0454 79.6822 93.371 80.0389 93.7896 80.3025C94.2083 80.5661 94.6734 80.6901 95.1851 80.6901H95.4642C95.7278 80.6901 95.9449 80.6281 96.1154 80.473C96.286 80.3335 96.379 80.1474 96.379 79.9148C96.379 79.6977 96.3015 79.5117 96.1775 79.3566C96.0534 79.2171 95.8984 79.1396 95.7123 79.1396H95.1851C94.844 79.1396 94.5649 79 94.3478 78.7209C94.1152 78.4418 94.0067 78.1007 94.0067 77.6821V73.8522H95.3247C95.5417 73.8522 95.7123 73.7902 95.8518 73.6662C95.9759 73.5421 96.0534 73.3871 96.0534 73.201C96.0534 72.9994 95.9759 72.8289 95.8518 72.7048C95.7123 72.5808 95.5417 72.5188 95.3247 72.5188H94.0067V70.286C94.0067 70.0689 93.9292 69.8829 93.7896 69.7278C93.6346 69.5883 93.4485 69.5107 93.2314 69.5107C92.9989 69.5107 92.8128 69.5883 92.6733 69.7278C92.5182 69.8829 92.4562 70.0689 92.4562 70.286V72.5188Z" fill="white"/>
<path d="M106.902 76.4571C106.902 75.6664 106.7 74.9221 106.328 74.2709C105.956 73.6197 105.444 73.0925 104.793 72.7203C104.142 72.3482 103.428 72.1466 102.638 72.1466C101.831 72.1466 101.103 72.3482 100.451 72.7203C99.8002 73.0925 99.2885 73.6197 98.9163 74.2709C98.5442 74.9221 98.3582 75.6509 98.3582 76.4571C98.3582 77.2634 98.5287 78.0077 98.8698 78.6589C99.2109 79.3101 99.6916 79.8218 100.296 80.1939C100.917 80.5816 101.583 80.7676 102.328 80.7676H102.452H106.157C106.359 80.7676 106.529 80.6901 106.685 80.5506C106.824 80.411 106.902 80.2404 106.902 80.0234V79.9148V76.4571ZM100.234 77.9457C99.9862 77.5115 99.8777 77.0153 99.8777 76.4571C99.8777 75.9144 99.9862 75.4183 100.234 74.9686C100.482 74.5345 100.808 74.1778 101.227 73.9298C101.645 73.6817 102.11 73.5421 102.638 73.5421C103.149 73.5421 103.614 73.6817 104.033 73.9298C104.452 74.1778 104.777 74.5345 105.025 74.9686C105.258 75.4183 105.382 75.9144 105.382 76.4571C105.382 77.0153 105.258 77.5115 105.025 77.9457C104.777 78.3798 104.452 78.7364 104.033 78.9845C103.614 79.2326 103.149 79.3566 102.638 79.3566C102.11 79.3566 101.645 79.2326 101.227 78.9845C100.808 78.7364 100.482 78.3798 100.234 77.9457ZM104.173 67.8051C103.956 67.8051 103.77 67.8827 103.614 68.0377L102.095 69.5573C101.971 69.6968 101.909 69.8674 101.909 70.0844C101.909 70.317 101.971 70.5031 102.126 70.6581C102.266 70.8132 102.452 70.8752 102.7 70.8752C102.917 70.8752 103.087 70.8132 103.242 70.6581L104.746 69.1541C104.886 69.0301 104.963 68.844 104.963 68.6114C104.963 68.3943 104.886 68.1928 104.731 68.0377C104.576 67.8827 104.39 67.8051 104.173 67.8051Z" fill="white"/>
<path d="M115.198 72.3637C114.887 72.2087 114.453 72.1156 113.911 72.1156C113.383 72.1156 112.903 72.2242 112.453 72.4257C111.988 72.6428 111.616 72.9219 111.306 73.2785V72.9839C111.306 72.4722 111.042 72.2087 110.53 72.2087C110.282 72.2087 110.081 72.2862 109.957 72.4102C109.817 72.5498 109.755 72.7358 109.755 72.9839V79.9148C109.755 80.1784 109.817 80.38 109.957 80.504C110.081 80.6281 110.282 80.6901 110.53 80.6901C110.778 80.6901 110.98 80.6281 111.104 80.4885C111.228 80.3645 111.306 80.1629 111.306 79.9148V75.3873C111.306 74.8136 111.523 74.3484 111.988 74.0073C112.438 73.6662 113.042 73.4956 113.787 73.4956C114.035 73.4956 114.376 73.5421 114.794 73.6041C114.887 73.6351 114.965 73.6351 115.027 73.6351C115.337 73.6351 115.554 73.4801 115.647 73.139C115.647 73.108 115.663 73.0614 115.663 72.9839C115.663 72.7358 115.508 72.5343 115.198 72.3637Z" fill="white"/>
<path d="M118.152 72.4257C117.997 72.5808 117.935 72.7668 117.935 72.9994V79.8993C117.935 80.1319 117.997 80.318 118.152 80.473C118.308 80.6281 118.494 80.6901 118.726 80.6901C118.959 80.6901 119.145 80.6281 119.3 80.473C119.439 80.318 119.517 80.1319 119.517 79.8993V72.9994C119.517 72.7668 119.439 72.5808 119.3 72.4257C119.145 72.2862 118.959 72.2087 118.726 72.2087C118.494 72.2087 118.308 72.2862 118.152 72.4257Z" fill="white"/>
<path d="M128.991 72.7048C128.339 72.3327 127.611 72.1466 126.804 72.1466C125.967 72.1466 125.238 72.3327 124.587 72.7048C123.936 73.077 123.424 73.5731 123.067 74.2244C122.695 74.8756 122.525 75.6198 122.525 76.4571C122.525 77.2944 122.695 78.0232 123.067 78.6744C123.424 79.3256 123.936 79.8373 124.587 80.2094C125.238 80.5816 125.967 80.7521 126.804 80.7521C127.626 80.7521 128.355 80.5816 129.006 80.2094C129.657 79.8373 130.153 79.3256 130.526 78.6744C130.882 78.0232 131.068 77.2944 131.068 76.4571C131.068 75.6198 130.882 74.8756 130.51 74.2244C130.138 73.5731 129.642 73.077 128.991 72.7048ZM125.378 73.9143C125.796 73.6662 126.277 73.5421 126.804 73.5421C127.331 73.5421 127.797 73.6662 128.215 73.9143C128.634 74.1623 128.96 74.519 129.192 74.9531C129.425 75.4028 129.549 75.8989 129.549 76.4571C129.549 77.0153 129.425 77.527 129.192 77.9612C128.96 78.3953 128.634 78.7364 128.215 78.9845C127.797 79.2326 127.331 79.3566 126.804 79.3566C126.277 79.3566 125.796 79.2326 125.378 78.9845C124.959 78.7364 124.634 78.3953 124.401 77.9612C124.153 77.527 124.044 77.0153 124.044 76.4571C124.044 75.8989 124.153 75.4028 124.401 74.9531C124.634 74.519 124.959 74.1623 125.378 73.9143Z" fill="white"/>
<path d="M12.9075 3.08948V31.9002V61.2306H0V3.08948H12.9075ZM48.9194 3.09086H33.4304L19.9464 22.0132L12.9075 31.9002L21.3577 41.7788L37.9909 61.2346H53.4799L28.3965 31.9002L48.9194 3.09086Z" fill="white"/>
<path d="M105.937 39.8073C105.937 27.5184 95.9387 17.5203 83.6489 17.5203C79.6087 17.5203 75.82 18.6062 72.5487 20.4935V3.08948H61.3615V61.2346H72.5488V39.8073C72.5488 33.6868 77.5283 28.7075 83.6489 28.7075C89.7692 28.7075 94.7495 33.6868 94.7495 39.8073L94.7495 61.2346H105.937L105.937 39.8073Z" fill="white"/>
<path d="M115.207 17.6541H126.24V61.3481H115.207V17.6541Z" fill="white"/>
<path d="M120.617 13.4698C124.337 13.4698 127.352 10.4544 127.352 6.73487C127.352 3.01528 124.337 0 120.617 0C116.898 0 113.882 3.01528 113.882 6.73487C113.882 10.4545 116.898 13.4698 120.617 13.4698Z" fill="#FF7125"/>
<path d="M177.03 18.3677L161.651 48.371L155.289 60.781L148.927 48.371L133.548 18.3677H146.272L155.289 35.9607L164.306 18.3677H177.03Z" fill="white"/>
</svg>
