<svg xmlns:dc="http://purl.org/dc/elements/1.1/" xmlns:cc="http://creativecommons.org/ns#" xmlns:rdf="http://www.w3.org/1999/02/22-rdf-syntax-ns#" xmlns:svg="http://www.w3.org/2000/svg" xmlns="http://www.w3.org/2000/svg" xmlns:xlink="http://www.w3.org/1999/xlink" id="svg601896" viewBox="0 0 1024 768" height="768px" width="1024px" version="1.1">
  <metadata id="metadata601902">
    <rdf:rdf>
      <cc:work rdf:about="">
        <dc:format>image/svg+xml</dc:format>
        <dc:type rdf:resource="http://purl.org/dc/dcmitype/StillImage"></dc:type>
      </cc:work>
    </rdf:rdf>
  </metadata>
  <defs id="defs601900"></defs>
  <linearGradient spreadMethod="pad" y2="30%" x2="-10%" y1="120%" x1="30%" id="3d_gradient2-logo-68663dd0-66b3-430c-809e-bd6ac4a9fc85">
    <stop id="stop601877" stop-opacity="1" stop-color="#ffffff" offset="0%"></stop>
    <stop id="stop601879" stop-opacity="1" stop-color="#000000" offset="100%"></stop>
  </linearGradient>
  <linearGradient gradientTransform="rotate(-30)" spreadMethod="pad" y2="30%" x2="-10%" y1="120%" x1="30%" id="3d_gradient3-logo-68663dd0-66b3-430c-809e-bd6ac4a9fc85">
    <stop id="stop601882" stop-opacity="1" stop-color="#ffffff" offset="0%"></stop>
    <stop id="stop601884" stop-opacity="1" stop-color="#cccccc" offset="50%"></stop>
    <stop id="stop601886" stop-opacity="1" stop-color="#000000" offset="100%"></stop>
  </linearGradient>
  <g id="logo-group">
    <image xlink:href="" id="container" style="display: none;" x="272" y="144" width="480" height="480" transform="translate(0 0)"></image>
    <g id="logo-center" transform="translate(-1.1368683772161603e-13 0)">
      <image xlink:href="" id="icon_container" style="display: none;" x="0" y="0"></image>
      <g id="slogan" style="font-style:normal;font-weight:700;font-size:32px;line-height:1;font-family:'Comfortaa Bold Alt1';font-variant-ligatures:none;text-align:center;text-anchor:middle" transform="translate(0 0)">
        <path id="path601904" style="font-style:normal;font-weight:700;font-size:32px;line-height:1;font-family:'Comfortaa Bold Alt1';font-variant-ligatures:none;text-align:center;text-anchor:middle" d="m 430.398,-17.056 c -0.32,0.32 -0.448,0.704 -0.448,1.184 v 14.24 c 0,0.48 0.128,0.864 0.448,1.184 0.32,0.32 0.704,0.448 1.184,0.448 0.48,0 0.864,-0.128 1.184,-0.448 0.288,-0.32 0.448,-0.704 0.448,-1.184 v -14.24 c 0,-0.48 -0.16,-0.864 -0.448,-1.184 -0.32,-0.288 -0.704,-0.448 -1.184,-0.448 -0.48,0 -0.864,0.16 -1.184,0.448 z" stroke-width="0" stroke-linejoin="miter" stroke-miterlimit="2" fill="#445ce3" stroke="#445ce3" transform="translate(0 432.21948375000005) translate(381.28175 50.336) scale(1.5) translate(-429.95 17.504)"></path>
        <path id="path601906" style="font-style:normal;font-weight:700;font-size:32px;line-height:1;font-family:'Comfortaa Bold Alt1';font-variant-ligatures:none;text-align:center;text-anchor:middle" d="m 454.7415,-13.888 c -0.672,-1.216 -1.6,-2.176 -2.752,-2.816 -1.12,-0.576 -2.336,-0.896 -3.68,-0.928 -0.032,0 -0.096,-0.032 -0.096,-0.032 h -7.36 c -0.448,0 -0.8,0.16 -1.088,0.448 -0.32,0.32 -0.448,0.672 -0.448,1.088 0,0.032 0,0.096 0,0.128 0,0.064 0,0.096 0,0.128 V -1.6 c 0,0.48 0.128,0.864 0.448,1.184 0.32,0.32 0.704,0.448 1.184,0.448 0.48,0 0.864,-0.128 1.184,-0.448 0.288,-0.32 0.448,-0.704 0.448,-1.184 v -9.024 c 0,-0.768 0.192,-1.44 0.608,-2.08 0.416,-0.608 0.992,-1.088 1.728,-1.472 0.736,-0.352 1.568,-0.544 2.464,-0.544 1.536,0 2.752,0.448 3.68,1.344 0.928,0.896 1.408,2.208 1.408,3.904 V -1.6 c 0,0.48 0.128,0.864 0.448,1.184 0.32,0.32 0.704,0.448 1.184,0.448 0.448,0 0.832,-0.128 1.152,-0.448 0.32,-0.32 0.48,-0.704 0.48,-1.184 v -7.872 c 0,-1.728 -0.352,-3.2 -0.992,-4.416 z" stroke-width="0" stroke-linejoin="miter" stroke-miterlimit="2" fill="#445ce3" stroke="#445ce3" transform="translate(0 432.21948375000005) translate(396.83299999999997 50.096) scale(1.5) translate(-439.3175 17.664)"></path>
        <path id="path601908" style="font-style:normal;font-weight:700;font-size:32px;line-height:1;font-family:'Comfortaa Bold Alt1';font-variant-ligatures:none;text-align:center;text-anchor:middle" d="m 474.3045,-16.736 c -0.16,-0.224 -0.384,-0.416 -0.64,-0.544 -0.224,-0.096 -0.48,-0.16 -0.736,-0.16 -0.288,0 -0.544,0.096 -0.8,0.224 -0.256,0.128 -0.416,0.32 -0.544,0.576 l -5.504,12 -5.568,-12 c -0.128,-0.256 -0.32,-0.448 -0.544,-0.576 -0.256,-0.128 -0.48,-0.224 -0.736,-0.224 -0.256,0 -0.48,0.064 -0.672,0.16 -0.608,0.32 -0.896,0.736 -0.896,1.312 0,0.224 0.032,0.416 0.128,0.576 l 6.784,14.304 c 0.192,0.384 0.384,0.672 0.64,0.832 0.224,0.16 0.512,0.224 0.896,0.224 0.64,0 1.152,-0.352 1.472,-1.056 l 6.784,-14.304 c 0.096,-0.192 0.16,-0.416 0.16,-0.608 0,-0.256 -0.096,-0.512 -0.224,-0.736 z" stroke-width="0" stroke-linejoin="miter" stroke-miterlimit="2" fill="#445ce3" stroke="#445ce3" transform="translate(0 432.21948375000005) translate(425.85349999999994 50.431999999999995) scale(1.5) translate(-457.6645 17.44)"></path>
        <path id="path601910" style="font-style:normal;font-weight:700;font-size:32px;line-height:1;font-family:'Comfortaa Bold Alt1';font-variant-ligatures:none;text-align:center;text-anchor:middle" d="m 492.426,-8 c 0.256,-0.256 0.416,-0.608 0.416,-1.024 0,-1.664 -0.32,-3.168 -0.96,-4.48 -0.64,-1.28 -1.568,-2.304 -2.752,-3.04 -1.216,-0.704 -2.624,-1.088 -4.256,-1.088 -1.664,0 -3.168,0.384 -4.48,1.152 -1.312,0.768 -2.336,1.824 -3.072,3.168 -0.736,1.344 -1.088,2.88 -1.088,4.576 0,1.728 0.384,3.232 1.152,4.576 0.768,1.344 1.856,2.4 3.264,3.168 1.376,0.768 2.944,1.12 4.704,1.12 0.96,0 1.984,-0.16 3.072,-0.544 1.088,-0.352 1.984,-0.832 2.72,-1.408 0.32,-0.256 0.512,-0.576 0.512,-0.96 0,-0.384 -0.192,-0.768 -0.576,-1.088 -0.256,-0.192 -0.576,-0.32 -0.96,-0.32 -0.416,0 -0.768,0.128 -1.056,0.352 -0.448,0.352 -1.024,0.64 -1.728,0.864 -0.704,0.256 -1.344,0.352 -1.984,0.352 -1.632,0 -3.008,-0.448 -4.128,-1.376 -1.12,-0.896 -1.792,-2.112 -2.016,-3.616 h 12.16 c 0.416,0 0.768,-0.128 1.056,-0.384 z m -11.36,-5.6 c 0.96,-0.832 2.24,-1.28 3.808,-1.28 1.408,0 2.528,0.448 3.424,1.28 0.864,0.864 1.408,2.016 1.6,3.424 h -10.656 c 0.256,-1.408 0.864,-2.56 1.824,-3.424 z" stroke-width="0" stroke-linejoin="miter" stroke-miterlimit="2" fill="#445ce3" stroke="#445ce3" transform="translate(0 432.21948375000005) translate(455.20775 50.144) scale(1.5) translate(-476.234 17.632)"></path>
        <path id="path601912" style="font-style:normal;font-weight:700;font-size:32px;line-height:1;font-family:'Comfortaa Bold Alt1';font-variant-ligatures:none;text-align:center;text-anchor:middle" d="m 512.429,-13.888 c -0.672,-1.216 -1.6,-2.176 -2.752,-2.816 -1.12,-0.576 -2.336,-0.896 -3.68,-0.928 -0.032,0 -0.096,-0.032 -0.096,-0.032 h -7.36 c -0.448,0 -0.8,0.16 -1.088,0.448 -0.32,0.32 -0.448,0.672 -0.448,1.088 0,0.032 0,0.096 0,0.128 0,0.064 0,0.096 0,0.128 V -1.6 c 0,0.48 0.128,0.864 0.448,1.184 0.32,0.32 0.704,0.448 1.184,0.448 0.48,0 0.864,-0.128 1.184,-0.448 0.288,-0.32 0.448,-0.704 0.448,-1.184 v -9.024 c 0,-0.768 0.192,-1.44 0.608,-2.08 0.416,-0.608 0.992,-1.088 1.728,-1.472 0.736,-0.352 1.568,-0.544 2.464,-0.544 1.536,0 2.752,0.448 3.68,1.344 0.928,0.896 1.408,2.208 1.408,3.904 V -1.6 c 0,0.48 0.128,0.864 0.448,1.184 0.32,0.32 0.704,0.448 1.184,0.448 0.448,0 0.832,-0.128 1.152,-0.448 0.32,-0.32 0.48,-0.704 0.48,-1.184 v -7.872 c 0,-1.728 -0.352,-3.2 -0.992,-4.416 z" stroke-width="0" stroke-linejoin="miter" stroke-miterlimit="2" fill="#445ce3" stroke="#445ce3" transform="translate(0 432.21948375000005) translate(487.86424999999997 50.096) scale(1.5) translate(-497.005 17.664)"></path>
        <path id="path601914" style="font-style:normal;font-weight:700;font-size:32px;line-height:1;font-family:'Comfortaa Bold Alt1';font-variant-ligatures:none;text-align:center;text-anchor:middle" d="m 519.5535,-16.864 v 2.752 7.904 c 0,1.184 0.224,2.24 0.736,3.168 0.48,0.96 1.152,1.696 2.016,2.24 0.864,0.544 1.824,0.8 2.88,0.8 h 0.576 c 0.544,0 0.992,-0.128 1.344,-0.448 0.352,-0.288 0.544,-0.672 0.544,-1.152 0,-0.448 -0.16,-0.832 -0.416,-1.152 -0.256,-0.288 -0.576,-0.448 -0.96,-0.448 h -1.088 c -0.704,0 -1.28,-0.288 -1.728,-0.864 -0.48,-0.576 -0.704,-1.28 -0.704,-2.144 v -7.904 h 2.72 c 0.448,0 0.8,-0.128 1.088,-0.384 0.256,-0.256 0.416,-0.576 0.416,-0.96 0,-0.416 -0.16,-0.768 -0.416,-1.024 -0.288,-0.256 -0.64,-0.384 -1.088,-0.384 h -2.72 v -4.608 c 0,-0.448 -0.16,-0.832 -0.448,-1.152 -0.32,-0.288 -0.704,-0.448 -1.152,-0.448 -0.48,0 -0.864,0.16 -1.152,0.448 -0.32,0.32 -0.448,0.704 -0.448,1.152 z" stroke-width="0" stroke-linejoin="miter" stroke-miterlimit="2" fill="#445ce3" stroke="#445ce3" transform="translate(0 432.21948375000005) translate(523.1869999999999 41.984) scale(1.5) translate(-519.5535 23.072)"></path>
        <path id="path601916" style="font-style:normal;font-weight:700;font-size:32px;line-height:1;font-family:'Comfortaa Bold Alt1';font-variant-ligatures:none;text-align:center;text-anchor:middle" d="m 548.366,-8.736 c 0,-1.632 -0.416,-3.168 -1.184,-4.512 -0.768,-1.344 -1.824,-2.432 -3.168,-3.2 -1.344,-0.768 -2.816,-1.184 -4.448,-1.184 -1.664,0 -3.168,0.416 -4.512,1.184 -1.344,0.768 -2.4,1.856 -3.168,3.2 -0.768,1.344 -1.152,2.848 -1.152,4.512 0,1.664 0.352,3.2 1.056,4.544 0.704,1.344 1.696,2.4 2.944,3.168 1.28,0.8 2.656,1.184 4.192,1.184 h 0.256 7.648 c 0.416,0 0.768,-0.16 1.088,-0.448 0.288,-0.288 0.448,-0.64 0.448,-1.088 V -1.6 Z m -13.76,3.072 c -0.512,-0.896 -0.736,-1.92 -0.736,-3.072 0,-1.12 0.224,-2.144 0.736,-3.072 0.512,-0.896 1.184,-1.632 2.048,-2.144 0.864,-0.512 1.824,-0.8 2.912,-0.8 1.056,0 2.016,0.288 2.88,0.8 0.864,0.512 1.536,1.248 2.048,2.144 0.48,0.928 0.736,1.952 0.736,3.072 0,1.152 -0.256,2.176 -0.736,3.072 -0.512,0.896 -1.184,1.632 -2.048,2.144 -0.864,0.512 -1.824,0.768 -2.88,0.768 -1.088,0 -2.048,-0.256 -2.912,-0.768 -0.864,-0.512 -1.536,-1.248 -2.048,-2.144 z m 8.128,-20.928 c -0.448,0 -0.832,0.16 -1.152,0.48 l -3.136,3.136 c -0.256,0.288 -0.384,0.64 -0.384,1.088 0,0.48 0.128,0.864 0.448,1.184 0.288,0.32 0.672,0.448 1.184,0.448 0.448,0 0.8,-0.128 1.12,-0.448 l 3.104,-3.104 c 0.288,-0.256 0.448,-0.64 0.448,-1.12 0,-0.448 -0.16,-0.864 -0.48,-1.184 -0.32,-0.32 -0.704,-0.48 -1.152,-0.48 z" stroke-width="0" stroke-linejoin="miter" stroke-miterlimit="2" fill="#445ce3" stroke="#445ce3" transform="translate(0 432.21948375000005) translate(541.45775 36.704) scale(1.5) translate(-530.734 26.592)"></path>
        <path id="path601918" style="font-style:normal;font-weight:700;font-size:32px;line-height:1;font-family:'Comfortaa Bold Alt1';font-variant-ligatures:none;text-align:center;text-anchor:middle" d="m 564.487,-17.184 c -0.64,-0.32 -1.536,-0.512 -2.656,-0.512 -1.088,0 -2.08,0.224 -3.008,0.64 -0.96,0.448 -1.728,1.024 -2.368,1.76 v -0.608 c 0,-1.056 -0.544,-1.6 -1.6,-1.6 -0.512,0 -0.928,0.16 -1.184,0.416 -0.288,0.288 -0.416,0.672 -0.416,1.184 V -1.6 c 0,0.544 0.128,0.96 0.416,1.216 0.256,0.256 0.672,0.384 1.184,0.384 0.512,0 0.928,-0.128 1.184,-0.416 0.256,-0.256 0.416,-0.672 0.416,-1.184 v -9.344 c 0,-1.184 0.448,-2.144 1.408,-2.848 0.928,-0.704 2.176,-1.056 3.712,-1.056 0.512,0 1.216,0.096 2.08,0.224 0.192,0.064 0.352,0.064 0.48,0.064 0.64,0 1.088,-0.32 1.28,-1.024 0,-0.064 0.032,-0.16 0.032,-0.32 0,-0.512 -0.32,-0.928 -0.96,-1.28 z" stroke-width="0" stroke-linejoin="miter" stroke-miterlimit="2" fill="#445ce3" stroke="#445ce3" transform="translate(0 432.21948375000005) translate(576.7392500000001 50.047999999999995) scale(1.5) translate(-553.255 17.696)"></path>
        <path id="path601920" style="font-style:normal;font-weight:700;font-size:32px;line-height:1;font-family:'Comfortaa Bold Alt1';font-variant-ligatures:none;text-align:center;text-anchor:middle" d="m 569.5855,-17.056 c -0.32,0.32 -0.448,0.704 -0.448,1.184 v 14.24 c 0,0.48 0.128,0.864 0.448,1.184 0.32,0.32 0.704,0.448 1.184,0.448 0.48,0 0.864,-0.128 1.184,-0.448 0.288,-0.32 0.448,-0.704 0.448,-1.184 v -14.24 c 0,-0.48 -0.16,-0.864 -0.448,-1.184 -0.32,-0.288 -0.704,-0.448 -1.184,-0.448 -0.48,0 -0.864,0.16 -1.184,0.448 z" stroke-width="0" stroke-linejoin="miter" stroke-miterlimit="2" fill="#445ce3" stroke="#445ce3" transform="translate(0 432.21948375000005) translate(602.0630000000001 50.336) scale(1.5) translate(-569.1375 17.504)"></path>
        <path id="path601922" style="font-style:normal;font-weight:700;font-size:32px;line-height:1;font-family:'Comfortaa Bold Alt1';font-variant-ligatures:none;text-align:center;text-anchor:middle" d="m 590.953,-16.48 c -1.344,-0.768 -2.848,-1.152 -4.512,-1.152 -1.728,0 -3.232,0.384 -4.576,1.152 -1.344,0.768 -2.4,1.792 -3.136,3.136 -0.768,1.344 -1.12,2.88 -1.12,4.608 0,1.728 0.352,3.232 1.12,4.576 0.736,1.344 1.792,2.4 3.136,3.168 1.344,0.768 2.848,1.12 4.576,1.12 1.696,0 3.2,-0.352 4.544,-1.12 1.344,-0.768 2.368,-1.824 3.136,-3.168 0.736,-1.344 1.12,-2.848 1.12,-4.576 0,-1.728 -0.384,-3.264 -1.152,-4.608 -0.768,-1.344 -1.792,-2.368 -3.136,-3.136 z m -7.456,2.496 c 0.864,-0.512 1.856,-0.768 2.944,-0.768 1.088,0 2.048,0.256 2.912,0.768 0.864,0.512 1.536,1.248 2.016,2.144 0.48,0.928 0.736,1.952 0.736,3.104 0,1.152 -0.256,2.208 -0.736,3.104 -0.48,0.896 -1.152,1.6 -2.016,2.112 -0.864,0.512 -1.824,0.768 -2.912,0.768 -1.088,0 -2.08,-0.256 -2.944,-0.768 -0.864,-0.512 -1.536,-1.216 -2.016,-2.112 -0.512,-0.896 -0.736,-1.952 -0.736,-3.104 0,-1.152 0.224,-2.176 0.736,-3.104 0.48,-0.896 1.152,-1.632 2.016,-2.144 z" stroke-width="0" stroke-linejoin="miter" stroke-miterlimit="2" fill="#445ce3" stroke="#445ce3" transform="translate(0 432.21948375000005) translate(616.27025 50.144) scale(1.5) translate(-577.609 17.632)"></path>
      </g>
      <g id="title" style="font-style:normal;font-weight:normal;font-size:72px;line-height:1;font-family:'Brandmark Sans 11 Color Shadow';font-variant-ligatures:normal;text-align:center;text-anchor:middle" transform="translate(0 0)">
        <g id="path601925" aria-label="K" transform="translate(0 323.19885275) translate(236.96977499999997 -54.07536899999998) scale(2.5) translate(-404.86173 72.096904)"> <path class="c1" d="M82.87158,64v35.67578v36.31934H66.88843V64H82.87158z M127.46436,64.00171h-19.17969L91.58765,87.43286 l-8.71606,12.24292l10.46362,12.23242L113.93188,136h19.17969l-31.0603-36.32422L127.46436,64.00171z" transform="translate(337.9733 -136.096904)" stroke-width="0" stroke-linejoin="miter" stroke-miterlimit="2" fill="#445ce3" stroke="#445ce3"></path> </g>
        <g id="path601927" aria-label="h" transform="translate(0 323.19885275) translate(423.35987500000005 -54.07536899999998) scale(2.5) translate(-479.41777 72.096904)"> <path class="c1" d="M127.5983,109.46702c0-15.21722-12.38037-27.59766-27.59863-27.59766 c-5.00293,0-9.69434,1.34473-13.74512,3.68176V63.99998H72.40153v72h13.85303v-26.53297h0.00049 c0-7.57898,6.16553-13.74475,13.74463-13.74475c7.57861,0,13.74561,6.16577,13.74561,13.74475l-0.00001,0.00044v26.53253h13.85303 v-26.53253L127.5983,109.46702z" transform="translate(407.01624 -136.096884)" stroke-width="0" stroke-linejoin="miter" stroke-miterlimit="2" fill="#445ce3" stroke="#445ce3"></path> </g>
        <g id="path601929" aria-label="i" transform="translate(0 323.19885275) translate(589.63995 -64.25033650000002) scale(2.5) translate(-545.9298 76.166891)"> <path class="c1" d="M93.22384,83.1981h13.55225v52.78339H93.22384V83.1981z" transform="translate(454.26943 -137.707701)" stroke-width="0" stroke-linejoin="miter" stroke-miterlimit="2" fill="#445ce3" stroke="#445ce3"></path> <path class="c2" d="M100.00021,78.22019c4.60596,0,8.33936-3.73383,8.33936-8.33972s-3.7334-8.33966-8.33936-8.33966 s-8.33984,3.73376-8.33984,8.33966S95.39424,78.22019,100.00021,78.22019z" transform="translate(454.26943 -137.707701)" stroke-width="0" stroke-linejoin="miter" stroke-miterlimit="2" fill="#ff7125" stroke="#ff7125"></path> </g>
        <g id="path601931" aria-label="v" transform="translate(0 323.19885275) translate(650.3949750000002 -7.318976500000005) scale(2.5) translate(-570.23181 53.394347)"> <path class="c1" d="M126.92163,83.46195l-19.0437,37.15247L100,135.98149l-7.87793-15.36707L73.07849,83.46195h15.75586 L100,105.24705l11.16565-21.7851H126.92163z" transform="translate(497.15332 -136.856297)" stroke-width="0" stroke-linejoin="miter" stroke-miterlimit="2" fill="#445ce3" stroke="#445ce3"></path> </g>
          </g>
      <image xlink:href="https://app.brandmark.io/nounpreview/19420.png" id="icon" style="display: none;" x="0" y="0"></image>
    </g>
  </g>
</svg>